<svg width="300" height="156" viewBox="0 0 300 156" fill="none" xmlns="http://www.w3.org/2000/svg">
<g clip-path="url(#clip0_212_1883)">
<path d="M150 138.55C232.843 138.55 300 136.671 300 134.354C300 132.036 232.843 130.158 150 130.158C67.1573 130.158 0 132.036 0 134.354C0 136.671 67.1573 138.55 150 138.55Z" fill="#E6E6E6"/>
<path d="M229.939 88.8894C229.75 88.892 229.561 88.8946 229.369 88.8946C229.177 88.8946 228.987 88.892 228.798 88.8894C218.757 88.6611 211.479 82.3874 213.332 75.805L217.849 59.7471L218.99 55.684L239.228 56.0291L240.458 60.004L245.299 75.6493C247.349 82.268 240.071 88.6611 229.939 88.8894Z" fill="#3F3D56"/>
<path opacity="0.2" d="M240.458 60.004C237.007 61.9765 233.093 62.9925 229.118 62.9474C225.144 62.9022 221.254 61.7975 217.849 59.7471L218.99 55.684L239.228 56.0291L240.458 60.004Z" fill="black"/>
<path d="M239.604 76.3378C240.478 73.0796 243.351 68.3794 251.409 62.7124C265.462 52.8277 257.079 45.416 256.716 45.1055C255.954 44.4541 256.066 43.7227 256.977 43.4728C257.507 43.367 258.053 43.3756 258.578 43.498C259.104 43.6203 259.598 43.8537 260.026 44.1824C260.481 44.5587 270.979 53.5234 255.121 64.6758C240.849 74.7142 243.883 81.267 243.918 81.3298C244.301 82.0307 243.687 82.5914 242.547 82.5839C241.407 82.5763 240.172 82.0026 239.788 81.3025C239.708 81.1544 238.789 79.371 239.604 76.3378Z" fill="#3F3D56"/>
<path d="M220.028 91.2297C219.721 91.2297 219.418 91.1693 219.135 91.052C218.851 90.9346 218.594 90.7626 218.377 90.5458C218.16 90.3289 217.988 90.0715 217.871 89.7882C217.753 89.5049 217.693 89.2012 217.693 88.8946V78.7757C217.693 78.1564 217.939 77.5625 218.377 77.1246C218.815 76.6866 219.409 76.4406 220.028 76.4406C220.647 76.4406 221.241 76.6866 221.679 77.1246C222.117 77.5625 222.363 78.1564 222.363 78.7757V88.8946C222.363 89.2012 222.303 89.5049 222.185 89.7882C222.068 90.0715 221.896 90.3289 221.679 90.5458C221.462 90.7626 221.205 90.9346 220.922 91.052C220.638 91.1693 220.335 91.2297 220.028 91.2297Z" fill="#3F3D56"/>
<path d="M222.076 67.2071C221.947 67.4857 221.766 67.7363 221.541 67.9446C221.316 68.1529 221.052 68.3149 220.764 68.4213C220.476 68.5276 220.171 68.5763 219.864 68.5645C219.558 68.5527 219.257 68.4806 218.978 68.3524L209.786 64.123C209.224 63.8638 208.788 63.392 208.573 62.8114C208.359 62.2309 208.384 61.5889 208.642 61.0267C208.901 60.4645 209.372 60.0279 209.953 59.813C210.533 59.598 211.175 59.6222 211.738 59.8803L220.93 64.1097C221.209 64.2379 221.459 64.4197 221.668 64.6447C221.876 64.8697 222.038 65.1336 222.144 65.4212C222.251 65.7088 222.299 66.0146 222.288 66.321C222.276 66.6274 222.204 66.9285 222.076 67.2071Z" fill="#3F3D56"/>
<path d="M236.662 67.2071C236.79 67.4857 236.972 67.7363 237.197 67.9446C237.422 68.1529 237.686 68.3149 237.973 68.4213C238.261 68.5276 238.566 68.5763 238.873 68.5645C239.179 68.5527 239.48 68.4806 239.759 68.3524L248.952 64.123C249.514 63.8642 249.951 63.3924 250.166 62.8116C250.381 62.2307 250.356 61.5883 250.097 61.0257C249.838 60.4631 249.366 60.0263 248.785 59.8115C248.205 59.5967 247.562 59.6215 247 59.8803L237.807 64.1097C237.528 64.2379 237.278 64.4197 237.069 64.6447C236.861 64.8697 236.699 65.1336 236.593 65.4212C236.486 65.7088 236.438 66.0145 236.45 66.321C236.461 66.6274 236.533 66.9285 236.662 67.2071Z" fill="#3F3D56"/>
<path d="M238.709 91.2297C239.016 91.2297 239.319 91.1693 239.603 91.052C239.886 90.9346 240.143 90.7626 240.36 90.5458C240.577 90.3289 240.749 90.0715 240.866 89.7882C240.984 89.5049 241.044 89.2012 241.044 88.8946V78.7757C241.044 78.1564 240.798 77.5625 240.36 77.1246C239.922 76.6866 239.328 76.4406 238.709 76.4406C238.09 76.4406 237.496 76.6866 237.058 77.1246C236.62 77.5625 236.374 78.1564 236.374 78.7757V88.8946C236.374 89.2012 236.434 89.5049 236.552 89.7882C236.669 90.0715 236.841 90.3289 237.058 90.5458C237.275 90.7626 237.532 90.9346 237.815 91.052C238.099 91.1693 238.402 91.2297 238.709 91.2297Z" fill="#3F3D56"/>
<path d="M248.468 25.7204C248.67 25.4663 248.815 25.1722 248.895 24.8576C248.975 24.5431 248.987 24.2152 248.931 23.8955L247.66 16.4191L246.389 8.94265C246.321 8.53897 246.147 8.16047 245.886 7.84519C245.625 7.52991 245.285 7.28896 244.901 7.14654C244.517 7.00413 244.103 6.96528 243.699 7.0339C243.295 7.10252 242.917 7.27619 242.601 7.53746L236.762 12.3763L233.244 15.2915C230.898 14.8743 228.5 14.8382 226.142 15.1844L222.753 12.3763L216.914 7.53746C216.599 7.2762 216.22 7.10253 215.817 7.03391C215.413 6.96529 214.998 7.00414 214.614 7.14655C214.231 7.28896 213.891 7.52991 213.63 7.84519C213.368 8.16048 213.195 8.53898 213.126 8.94265L211.855 16.4191L210.584 23.8955C210.516 24.2884 210.551 24.6922 210.686 25.0676C208.508 28.4065 207.264 32.268 207.085 36.2504C206.905 40.2328 207.795 44.1907 209.664 47.7122C211.532 51.2338 214.31 54.1905 217.708 56.2747C221.106 58.3589 225.001 59.4945 228.986 59.5634C232.972 59.6322 236.904 58.6319 240.372 56.6663C243.84 54.7007 246.718 51.8418 248.707 48.3869C250.696 44.9319 251.723 41.0072 251.681 37.021C251.639 33.0347 250.529 29.1326 248.468 25.7204Z" fill="#3F3D56"/>
<path d="M216.329 10.6012C216.191 10.6014 216.053 10.6263 215.923 10.6748C215.733 10.7442 215.564 10.8632 215.434 11.0195C215.305 11.1758 215.219 11.3637 215.186 11.564L213.645 20.6306C213.611 20.8305 213.631 21.0357 213.701 21.2258C213.772 21.4159 213.891 21.584 214.047 21.7134C214.203 21.8427 214.39 21.9287 214.59 21.9627C214.79 21.9966 214.995 21.9774 215.186 21.9069L223.808 18.7082C223.998 18.6377 224.166 18.5185 224.295 18.3624C224.425 18.2063 224.511 18.0189 224.545 17.8191C224.579 17.6193 224.559 17.414 224.489 17.224C224.418 17.0339 224.299 16.8658 224.143 16.7365L217.062 10.8684C216.856 10.6962 216.597 10.6017 216.329 10.6012Z" fill="#E6E6E6"/>
<path d="M243.187 10.6012C242.919 10.6017 242.659 10.6963 242.454 10.8684L235.372 16.7365C235.216 16.8658 235.097 17.0339 235.027 17.224C234.956 17.414 234.937 17.6193 234.971 17.8191C235.005 18.0189 235.091 18.2063 235.22 18.3624C235.35 18.5185 235.518 18.6377 235.708 18.7082L244.33 21.9069C244.52 21.9774 244.725 21.9966 244.925 21.9627C245.125 21.9287 245.313 21.8427 245.469 21.7134C245.625 21.584 245.744 21.4159 245.815 21.2258C245.885 21.0357 245.904 20.8305 245.87 20.6306L244.329 11.564C244.296 11.3637 244.211 11.1758 244.081 11.0195C243.952 10.8632 243.783 10.7442 243.592 10.6748C243.462 10.6263 243.325 10.6014 243.187 10.6012Z" fill="#E6E6E6"/>
<path d="M229.369 43.4895C231.088 43.4895 232.482 42.0955 232.482 40.376C232.482 38.6565 231.088 37.2625 229.369 37.2625C227.649 37.2625 226.255 38.6565 226.255 40.376C226.255 42.0955 227.649 43.4895 229.369 43.4895Z" fill="#E6E6E6"/>
<path d="M229.369 39.5976C230.515 39.5976 231.444 39.2491 231.444 38.8193C231.444 38.3894 230.515 38.0409 229.369 38.0409C228.222 38.0409 227.293 38.3894 227.293 38.8193C227.293 39.2491 228.222 39.5976 229.369 39.5976Z" fill="#3F3D56"/>
<path d="M227.812 42.1922H230.666V45.6949C230.666 45.8823 230.629 46.0678 230.557 46.241C230.486 46.4141 230.38 46.5714 230.248 46.7039C230.115 46.8364 229.958 46.9416 229.785 47.0133C229.612 47.085 229.426 47.1219 229.239 47.1219C228.86 47.1219 228.497 46.9716 228.23 46.7039C227.962 46.4363 227.812 46.0733 227.812 45.6949L227.812 42.1922Z" fill="#FF6584"/>
<path d="M229.542 6.87665C229.392 7.187 229.247 7.50072 229.11 7.82084C227.5 11.5761 226.957 15.7029 227.541 19.7469C227.833 19.323 228.14 18.8815 228.452 18.435C227.783 14.5538 228.16 10.5645 229.542 6.87665Z" fill="#3F3D56"/>
<path d="M231.877 9.73068C231.727 10.041 231.582 10.3548 231.445 10.6749C229.835 14.4302 229.292 18.5569 229.876 22.6009C230.168 22.1771 230.475 21.7355 230.787 21.2891C230.119 17.4079 230.495 13.4186 231.877 9.73068Z" fill="#3F3D56"/>
<path d="M239.076 65.7611L238.747 61.5777L238.418 57.3942C238.401 57.1683 238.324 56.9511 238.195 56.7644C238.067 56.5776 237.892 56.4279 237.687 56.3304C237.483 56.2328 237.256 56.1908 237.03 56.2086C236.804 56.2263 236.587 56.3033 236.4 56.4316L232.942 58.8082L230.416 60.5437C230.255 60.3547 230.055 60.2029 229.829 60.0989C229.603 59.9948 229.358 59.941 229.109 59.941C228.861 59.941 228.615 59.9948 228.389 60.0989C228.164 60.2029 227.963 60.3547 227.802 60.5437L225.276 58.8082L221.818 56.4316C221.631 56.3032 221.414 56.2263 221.188 56.2086C220.962 56.1908 220.735 56.2328 220.531 56.3304C220.326 56.4279 220.151 56.5776 220.023 56.7643C219.895 56.9511 219.818 57.1683 219.8 57.3942L219.471 61.5777L219.142 65.7611C219.124 65.987 219.166 66.2136 219.264 66.4181C219.361 66.6226 219.511 66.7978 219.698 66.9261C219.884 67.0544 220.102 67.1313 220.328 67.1491C220.553 67.1669 220.78 67.1248 220.984 67.0273L224.772 65.2204L227.884 63.7358C228.044 63.8981 228.235 64.0269 228.445 64.1148C228.655 64.2028 228.881 64.248 229.109 64.248C229.337 64.248 229.563 64.2028 229.773 64.1148C229.983 64.0269 230.174 63.8981 230.334 63.7358L233.446 65.2204L237.234 67.0273C237.438 67.1248 237.665 67.1669 237.891 67.1491C238.116 67.1313 238.334 67.0544 238.52 66.9261C238.707 66.7978 238.857 66.6226 238.954 66.4181C239.052 66.2136 239.094 65.987 239.076 65.7611Z" fill="#FF7686"/>
<path d="M225.217 37.7814C225.647 37.7814 225.996 37.4329 225.996 37.003C225.996 36.5732 225.647 36.2247 225.217 36.2247C224.787 36.2247 224.439 36.5732 224.439 37.003C224.439 37.4329 224.787 37.7814 225.217 37.7814Z" fill="#E6E6E6"/>
<path d="M233.52 37.7814C233.95 37.7814 234.298 37.4329 234.298 37.003C234.298 36.5732 233.95 36.2247 233.52 36.2247C233.09 36.2247 232.742 36.5732 232.742 37.003C232.742 37.4329 233.09 37.7814 233.52 37.7814Z" fill="#E6E6E6"/>
<path d="M78.7646 82.0127C78.954 82.0153 79.1434 82.0179 79.3354 82.0179C79.5274 82.0179 79.7168 82.0153 79.9062 82.0127C89.9472 81.7844 97.225 75.5107 95.3725 68.9283L90.8553 52.8704L89.7137 48.8073L69.476 49.1524L68.2462 53.1273L63.4047 68.7726C61.355 75.3914 68.6328 81.7844 78.7646 82.0127Z" fill="#3F3D56"/>
<path opacity="0.2" d="M68.2461 53.1273C71.6967 55.0998 75.6112 56.1159 79.5856 56.0707C83.5599 56.0256 87.4503 54.9208 90.8552 52.8704L89.7136 48.8073L69.4759 49.1524L68.2461 53.1273Z" fill="black"/>
<path d="M66.6422 67.5579C64.4578 64.9871 59.8497 61.9685 50.1418 60.2945C33.2104 57.3738 37.6161 47.0877 37.8115 46.6516C38.2216 45.7368 37.8069 45.1239 36.8764 45.2879C36.3527 45.4188 35.863 45.6601 35.4402 45.9957C35.0174 46.3312 34.6712 46.7533 34.4248 47.2336C34.1746 47.7685 28.5225 60.3629 47.6274 63.6572C64.8219 66.6234 64.8832 73.8443 64.8786 73.916C64.8329 74.7131 65.6271 74.9575 66.6544 74.4628C67.6817 73.9681 68.5525 72.9211 68.5996 72.1241C68.6092 71.9558 68.6761 69.9509 66.6422 67.5579Z" fill="#3F3D56"/>
<path d="M88.6758 84.3531C88.9825 84.3531 89.2861 84.2927 89.5694 84.1753C89.8527 84.058 90.1102 83.886 90.327 83.6691C90.5438 83.4523 90.7158 83.1949 90.8332 82.9116C90.9505 82.6282 91.0109 82.3246 91.0109 82.0179V71.8991C91.0102 71.2803 90.7638 70.687 90.326 70.2497C89.8882 69.8124 89.2946 69.5668 88.6758 69.5668C88.057 69.5668 87.4635 69.8124 87.0256 70.2497C86.5878 70.687 86.3414 71.2803 86.3407 71.8991V82.0179C86.3407 82.3246 86.4011 82.6282 86.5184 82.9116C86.6358 83.1949 86.8078 83.4523 87.0246 83.6691C87.2415 83.886 87.4989 84.058 87.7822 84.1753C88.0655 84.2927 88.3692 84.3531 88.6758 84.3531Z" fill="#3F3D56"/>
<path d="M86.6285 60.3304C86.7566 60.609 86.9384 60.8596 87.1634 61.068C87.3884 61.2763 87.6523 61.4383 87.9399 61.5446C88.2275 61.651 88.5333 61.6996 88.8397 61.6878C89.1461 61.676 89.4472 61.604 89.7258 61.4758L98.9184 57.2464C99.1973 57.1184 99.4483 56.9368 99.6569 56.7117C99.8656 56.4867 100.028 56.2228 100.134 55.9351C100.241 55.6473 100.29 55.3413 100.278 55.0347C100.266 54.7281 100.194 54.4268 100.066 54.148C99.9377 53.8692 99.7558 53.6185 99.5306 53.41C99.3053 53.2016 99.0412 53.0397 98.7534 52.9334C98.4655 52.8271 98.1595 52.7786 97.8529 52.7907C97.5463 52.8027 97.245 52.8751 96.9664 53.0037L87.7738 57.2331C87.4952 57.3612 87.2446 57.543 87.0363 57.768C86.8279 57.9931 86.666 58.2569 86.5596 58.5445C86.4533 58.8322 86.4046 59.1379 86.4164 59.4443C86.4282 59.7508 86.5003 60.0519 86.6285 60.3304Z" fill="#3F3D56"/>
<path d="M72.0423 60.3304C71.9141 60.609 71.7324 60.8596 71.5073 61.068C71.2823 61.2763 71.0184 61.4383 70.7308 61.5446C70.4432 61.651 70.1375 61.6996 69.831 61.6878C69.5246 61.676 69.2235 61.604 68.9449 61.4758L59.7523 57.2464C59.4734 57.1184 59.2225 56.9368 59.0138 56.7117C58.8052 56.4867 58.6429 56.2228 58.5364 55.9351C58.4298 55.6473 58.381 55.3413 58.3927 55.0347C58.4044 54.7281 58.4765 54.4268 58.6047 54.148C58.733 53.8692 58.915 53.6185 59.1402 53.41C59.3654 53.2016 59.6295 53.0397 59.9174 52.9334C60.2053 52.8271 60.5112 52.7786 60.8179 52.7907C61.1245 52.8027 61.4257 52.8751 61.7044 53.0037L70.897 57.2331C71.1755 57.3612 71.4262 57.543 71.6345 57.768C71.8428 57.9931 72.0048 58.2569 72.1111 58.5445C72.2175 58.8322 72.2662 59.1379 72.2543 59.4443C72.2425 59.7508 72.1705 60.0519 72.0423 60.3304Z" fill="#3F3D56"/>
<path d="M69.9949 84.3531C69.6883 84.3531 69.3846 84.2927 69.1013 84.1753C68.818 84.058 68.5605 83.886 68.3437 83.6691C68.1269 83.4523 67.9549 83.1949 67.8375 82.9116C67.7202 82.6282 67.6598 82.3246 67.6598 82.0179V71.8991C67.6605 71.2803 67.9069 70.687 68.3447 70.2497C68.7826 69.8124 69.3761 69.5668 69.9949 69.5668C70.6137 69.5668 71.2073 69.8124 71.6451 70.2497C72.0829 70.687 72.3293 71.2803 72.33 71.8991V82.0179C72.33 82.3246 72.2696 82.6282 72.1523 82.9116C72.0349 83.1949 71.8629 83.4523 71.6461 83.6691C71.4293 83.886 71.1718 84.058 70.8885 84.1753C70.6052 84.2927 70.3016 84.3531 69.9949 84.3531Z" fill="#3F3D56"/>
<path d="M98.018 18.191C98.1525 17.8156 98.1875 17.4118 98.1197 17.0188L96.8488 9.5424L95.5779 2.06598C95.5093 1.66231 95.3356 1.28381 95.0743 0.968527C94.8131 0.653244 94.4734 0.412292 94.0895 0.269881C93.7056 0.12747 93.291 0.0886175 92.8873 0.157237C92.4837 0.225856 92.1051 0.399527 91.7899 0.66079L85.9505 5.49962L82.5618 8.30775C80.2041 7.96148 77.806 7.99764 75.4599 8.41483L71.9419 5.49961L66.1025 0.66078C65.7873 0.399516 65.4088 0.225846 65.0051 0.157226C64.6014 0.0886067 64.1868 0.127454 63.8029 0.269866C63.419 0.412277 63.0793 0.653233 62.8181 0.968516C62.5568 1.2838 62.3831 1.6623 62.3145 2.06597L61.0436 9.5424L59.7727 17.0188C59.7166 17.3385 59.7289 17.6664 59.8088 17.981C59.8887 18.2955 60.0344 18.5896 60.2362 18.8438C58.1722 22.2567 57.0606 26.1604 57.0171 30.1487C56.9735 34.1369 57.9997 38.064 59.9887 41.5211C61.9777 44.9783 64.8569 47.8392 68.3266 49.8062C71.7964 51.7732 75.7299 52.7743 79.7178 52.7054C83.7057 52.6365 87.6022 51.5001 91.002 49.4144C94.4017 47.3287 97.1803 44.37 99.0487 40.8462C100.917 37.3224 101.807 33.3623 101.626 29.3779C101.444 25.3935 100.199 21.5305 98.018 18.191Z" fill="#3F3D56"/>
<path d="M91.6421 3.99173L84.561 9.85956C84.4049 9.9889 84.2855 10.1573 84.215 10.3473C84.1445 10.5374 84.1253 10.7426 84.1593 10.9425C84.1933 11.1423 84.2792 11.3297 84.4086 11.4857C84.5379 11.6418 84.706 11.7611 84.8961 11.8316L93.5185 15.0302C93.7085 15.1007 93.9138 15.12 94.1137 15.086C94.3135 15.052 94.5009 14.9661 94.657 14.8367C94.8131 14.7074 94.9324 14.5392 95.0029 14.3492C95.0735 14.1591 95.0927 13.9538 95.0587 13.754L93.5176 4.68738C93.4847 4.48707 93.3991 4.29912 93.2696 4.14284C93.1401 3.98656 92.9712 3.86759 92.7805 3.79816C92.6508 3.74967 92.5135 3.72475 92.375 3.72455C92.1069 3.72505 91.8476 3.8196 91.6421 3.99173Z" fill="#E6E6E6"/>
<path d="M65.1118 3.79816C64.9211 3.86759 64.7523 3.98655 64.6227 4.14283C64.4932 4.29911 64.4076 4.48707 64.3747 4.68738L62.8336 13.754C62.7996 13.9538 62.8189 14.1591 62.8894 14.3492C62.9599 14.5392 63.0792 14.7074 63.2353 14.8367C63.3914 14.9661 63.5788 15.052 63.7787 15.086C63.9785 15.12 64.1838 15.1007 64.3739 15.0302L72.9963 11.8316C73.1863 11.7611 73.3544 11.6418 73.4838 11.4857C73.6131 11.3297 73.6991 11.1423 73.733 10.9425C73.767 10.7426 73.7478 10.5374 73.6773 10.3473C73.6068 10.1573 73.4875 9.98915 73.3315 9.85981L66.2502 3.99173C66.0448 3.8196 65.7854 3.72505 65.5173 3.72455C65.3789 3.72475 65.2415 3.74967 65.1118 3.79816Z" fill="#E6E6E6"/>
<path d="M79.3353 36.6128C81.0548 36.6128 82.4488 35.2189 82.4488 33.4994C82.4488 31.7798 81.0548 30.3859 79.3353 30.3859C77.6158 30.3859 76.2218 31.7798 76.2218 33.4994C76.2218 35.2189 77.6158 36.6128 79.3353 36.6128Z" fill="#E6E6E6"/>
<path d="M79.3353 32.721C80.4817 32.721 81.411 32.3725 81.411 31.9426C81.411 31.5127 80.4817 31.1642 79.3353 31.1642C78.1889 31.1642 77.2596 31.5127 77.2596 31.9426C77.2596 32.3725 78.1889 32.721 79.3353 32.721Z" fill="#3F3D56"/>
<path d="M79.4651 40.2452C79.2777 40.2452 79.0921 40.2083 78.919 40.1366C78.7458 40.0649 78.5885 39.9598 78.456 39.8273C78.3235 39.6948 78.2184 39.5374 78.1467 39.3643C78.075 39.1912 78.0381 39.0056 78.0381 38.8182V35.3155H80.8921V38.8182C80.8921 39.0056 80.8552 39.1912 80.7835 39.3643C80.7118 39.5374 80.6066 39.6948 80.4741 39.8273C80.3416 39.9598 80.1843 40.0649 80.0112 40.1366C79.838 40.2083 79.6525 40.2452 79.4651 40.2452Z" fill="#FF6584"/>
<path d="M79.1621 0C79.3118 0.310354 79.4571 0.624064 79.5937 0.94419C81.204 4.69949 81.747 8.82621 81.1631 12.8702C80.8709 12.4464 80.5639 12.0048 80.2517 11.5584C80.9204 7.67717 80.5444 3.68788 79.1621 0Z" fill="#3F3D56"/>
<path d="M76.827 2.85403C76.9767 3.16439 77.122 3.4781 77.2587 3.79822C78.8689 7.55352 79.4119 11.6803 78.828 15.7243C78.5358 15.3004 78.2288 14.8589 77.9166 14.4124C78.5854 10.5312 78.2093 6.54192 76.827 2.85403Z" fill="#3F3D56"/>
<path d="M69.6276 13.4794L69.9566 9.29592L70.2855 5.11245C70.3033 4.88656 70.3802 4.66934 70.5085 4.4826C70.6369 4.29586 70.8121 4.14619 71.0166 4.04863C71.2211 3.95107 71.4476 3.90906 71.6735 3.92682C71.8994 3.94459 72.1166 4.0215 72.3034 4.14982L75.7619 6.52644L78.2874 8.26193C78.4488 8.07294 78.6493 7.92119 78.875 7.81714C79.1007 7.71309 79.3463 7.65921 79.5948 7.65921C79.8433 7.65921 80.0889 7.71309 80.3146 7.81714C80.5403 7.92119 80.7408 8.07294 80.9022 8.26193L83.4277 6.52644L86.8862 4.14982C87.073 4.0215 87.2902 3.94459 87.5161 3.92682C87.742 3.90906 87.9685 3.95107 88.173 4.04863C88.3775 4.14619 88.5527 4.29586 88.6811 4.4826C88.8094 4.66934 88.8863 4.88656 88.9041 5.11245L89.233 9.29592L89.562 13.4794C89.5797 13.7053 89.5377 13.9318 89.4402 14.1363C89.3426 14.3408 89.1929 14.516 89.0062 14.6444C88.8195 14.7727 88.6022 14.8496 88.3764 14.8674C88.1505 14.8851 87.9239 14.8431 87.7194 14.7456L83.9319 12.9387L80.8199 11.4541C80.6598 11.6163 80.469 11.7452 80.2587 11.8331C80.0484 11.921 79.8227 11.9663 79.5948 11.9663C79.3668 11.9663 79.1411 11.921 78.9308 11.8331C78.7205 11.7452 78.5298 11.6163 78.3696 11.4541L75.2577 12.9387L71.4702 14.7456C71.2657 14.8431 71.0391 14.8851 70.8132 14.8674C70.5874 14.8496 70.3701 14.7727 70.1834 14.6444C69.9967 14.5161 69.847 14.3408 69.7494 14.1363C69.6519 13.9318 69.6099 13.7053 69.6276 13.4794Z" fill="#FF7686"/>
<path d="M82.7083 30.1264C82.7083 30.5563 83.0567 30.1264 83.4866 30.1264C83.9165 30.1264 84.265 30.5563 84.265 30.1264C84.2646 29.9202 84.1824 29.7227 84.0364 29.577C83.8905 29.4314 83.6928 29.3496 83.4866 29.3496C83.2805 29.3496 83.0827 29.4314 82.9368 29.577C82.7909 29.7227 82.7087 29.9202 82.7083 30.1264Z" fill="#E6E6E6"/>
<path d="M75.9624 30.1264C75.9624 30.5563 75.6139 30.1264 75.184 30.1264C74.7541 30.1264 74.4056 30.5563 74.4056 30.1264C74.4061 29.9202 74.4883 29.7227 74.6342 29.577C74.7801 29.4314 74.9779 29.3496 75.184 29.3496C75.3902 29.3496 75.5879 29.4314 75.7338 29.577C75.8798 29.7227 75.962 29.9202 75.9624 30.1264Z" fill="#E6E6E6"/>
<path d="M162.32 88.8961V83.9483H137.582V84.2578V88.8961V128.787V133.734H142.53H162.32V128.787H142.53V88.8961H162.32Z" fill="#3F3D56"/>
<path d="M174.38 83.9484V133.734H199.118V83.9484H174.38ZM194.171 128.787H179.328V88.8961H194.171V128.787Z" fill="#FF7686"/>
<path d="M105.731 128.787V84.2578H100.784V128.787V133.734H105.731H125.522V128.787H105.731Z" fill="#FF7686"/>
<path d="M89.6516 88.8961V83.9483H64.9133V84.2578V88.8961V106.213V111.161V128.787V133.734H69.8611H89.6516V128.787H69.8611V111.161H89.6516V106.213H69.8611V88.8961H89.6516Z" fill="#3F3D56"/>
<path d="M283.229 88.8961V83.9483H258.49V84.2578V88.8961V106.213V111.161V128.787V133.734H263.438H283.229V128.787H263.438V111.161H283.229V106.213H263.438V88.8961H283.229Z" fill="#FF7686"/>
<path d="M48.2149 84.2578V125.149L35.1695 112.104L35.1399 112.134L35.1122 112.106L21.776 125.443V84.1032H16.8282V133.58H21.776V132.44L35.1422 119.073L48.2149 132.146V133.734H53.1626V84.2578H48.2149Z" fill="#3F3D56"/>
<path d="M242.101 84.2578V85.3976L228.735 98.7638L215.662 85.6912V84.1032H210.714V133.58H215.662V92.6881L228.707 105.733L228.737 105.703L228.765 105.731L242.101 92.3945V133.734H247.049V84.2578H242.101Z" fill="#3F3D56"/>
<path d="M113.064 53.7793C114.741 53.7793 116.101 52.4196 116.101 50.7424C116.101 49.0652 114.741 47.7056 113.064 47.7056C111.387 47.7056 110.027 49.0652 110.027 50.7424C110.027 52.4196 111.387 53.7793 113.064 53.7793Z" fill="#FF7686"/>
<path d="M38.155 87.5222C39.8322 87.5222 41.1919 86.1626 41.1919 84.4853C41.1919 82.8081 39.8322 81.4485 38.155 81.4485C36.4778 81.4485 35.1182 82.8081 35.1182 84.4853C35.1182 86.1626 36.4778 87.5222 38.155 87.5222Z" fill="#FF7686"/>
<path d="M98.2174 155.008C99.8946 155.008 101.254 153.648 101.254 151.971C101.254 150.294 99.8946 148.934 98.2174 148.934C96.5402 148.934 95.1805 150.294 95.1805 151.971C95.1805 153.648 96.5402 155.008 98.2174 155.008Z" fill="#FF7686"/>
<path d="M174.476 62.8899C176.154 62.8899 177.513 61.5302 177.513 59.853C177.513 58.1758 176.154 56.8162 174.476 56.8162C172.799 56.8162 171.439 58.1758 171.439 59.853C171.439 61.5302 172.799 62.8899 174.476 62.8899Z" fill="#FF7686"/>
<path d="M263.895 152.309C265.572 152.309 266.932 150.949 266.932 149.272C266.932 147.595 265.572 146.235 263.895 146.235C262.218 146.235 260.858 147.595 260.858 149.272C260.858 150.949 262.218 152.309 263.895 152.309Z" fill="#FF7686"/>
<path d="M266.932 72.6753C268.609 72.6753 269.969 71.3157 269.969 69.6385C269.969 67.9612 268.609 66.6016 266.932 66.6016C265.255 66.6016 263.895 67.9612 263.895 69.6385C263.895 71.3157 265.255 72.6753 266.932 72.6753Z" fill="#FF7686"/>
<path d="M228.465 127.339C230.142 127.339 231.502 125.979 231.502 124.302C231.502 122.625 230.142 121.265 228.465 121.265C226.788 121.265 225.428 122.625 225.428 124.302C225.428 125.979 226.788 127.339 228.465 127.339Z" fill="#FF7686"/>
</g>
<defs>
<clipPath id="clip0_212_1883">
<rect width="300" height="155.008" fill="white"/>
</clipPath>
</defs>
</svg>
